<?xml version="1.0" encoding="utf-8"?>
<!-- Generator: Adobe Illustrator 16.0.3, SVG Export Plug-In . SVG Version: 6.00 Build 0)  -->
<!DOCTYPE svg PUBLIC "-//W3C//DTD SVG 1.1//EN" "http://www.w3.org/Graphics/SVG/1.1/DTD/svg11.dtd">
<svg version="1.1" id="Layer_1" xmlns="http://www.w3.org/2000/svg" xmlns:xlink="http://www.w3.org/1999/xlink" x="0px" y="0px"
	 width="75.293px" height="141.176px" viewBox="0 0 75.293 141.176" enable-background="new 0 0 75.293 141.176"
	 xml:space="preserve">
<path d="M43.928,56.595c-11-16.166-11.166-25.084-9.832-28.084c1.16-2.612,3.439-4.167,5.832-4.167c2.123,0,5.168,1.334,4.5,5.584
	c-0.137,0.875-0.105,2.011-0.318,3.387c-0.207,1.376-0.311,2.496-0.311,3.386c0,1.998,0.541,3.725,1.623,5.164
	c1.08,1.436,3.932,2.375,5.641,2.375c1.746,0,3.184-0.792,4.318-2.372c1.133-1.585,1.699-3.63,1.699-6.144
	c0-4.14-1.611-7.991-4.84-11.552c-3.207-3.538-6.162-5.336-11.391-5.336c-3.588,0-7.766,1.834-12.588,7.258
	c-1.428,1.607-3.453,5.319-3.824,9.115c-3.212,5.134-6.538,12.443-6.811,23.147c-0.302,11.747,7.104,24.7,14,34.833
	c11,16.167,11.166,25.083,9.832,28.083c-1.16,2.613-3.441,4.168-5.832,4.168c-2.123,0-5.168-1.334-4.5-5.584
	c0.137-0.875,0.105-2.01,0.316-3.387c0.209-1.377,0.311-2.496,0.311-3.387c0-1.998-0.541-3.723-1.621-5.162
	c-1.08-1.436-3.934-2.375-5.641-2.375c-1.746,0-3.184,0.791-4.318,2.371c-1.135,1.586-1.699,3.629-1.699,6.143
	c0,4.141,1.609,7.992,4.84,11.553c3.205,3.537,6.162,5.336,11.389,5.336c3.59,0,7.768-1.834,12.59-7.258
	c1.428-1.606,3.452-5.318,3.824-9.113c3.212-5.135,6.538-12.444,6.811-23.148C58.158,82.513,51.425,67.613,43.928,56.595z
	 M33.627,75.689c-7.881-20.719-6.602-27.23-5.55-29.156c3.556,6.529,7.939,12.021,13.851,27.563
	c7.881,20.718,6.602,27.229,5.551,29.157C43.922,96.723,39.539,91.23,33.627,75.689z"/>
</svg>
