<?xml version="1.0" encoding="utf-8"?>
<!-- Generator: Adobe Illustrator 16.0.3, SVG Export Plug-In . SVG Version: 6.00 Build 0)  -->
<!DOCTYPE svg PUBLIC "-//W3C//DTD SVG 1.1//EN" "http://www.w3.org/Graphics/SVG/1.1/DTD/svg11.dtd">
<svg version="1.1" id="Layer_1" xmlns="http://www.w3.org/2000/svg" xmlns:xlink="http://www.w3.org/1999/xlink" x="0px" y="0px"
	 width="75.294px" height="141.176px" viewBox="0 0 75.294 141.176" enable-background="new 0 0 75.294 141.176"
	 xml:space="preserve">
<path d="M43.779,52.292c-11-16.167-11.634-23.32-10.301-26.32c1.162-2.612,3.918-4.696,6.311-4.696c2.123,0,5.02,0.974,4.354,5.224
	c-0.138,0.875,0.03,1.136-0.182,2.512c-0.208,1.376-0.311,2.496-0.311,3.386c0,1.998,0.541,3.724,1.622,5.164
	c1.081,1.436,3.933,2.375,5.641,2.375c1.746,0,3.185-0.792,4.319-2.372c1.133-1.585,1.699-3.63,1.699-6.143
	c0-4.14-1.611-7.991-4.841-11.552c-3.206-3.538-6.161-5.336-11.39-5.336c-3.588,0-7.767,1.833-12.588,7.258
	c-1.623,1.826-4.027,6.369-3.886,10.667c-2.86,4.335-5.355,9.611-5.622,19.985c-0.332,13,1.384,23.568,11.167,40.5
	c3.056,5.287,10.821,14,10.821,14s2.607,9.213-4.43,10.188c-2.104,0.291-4.375-5.438-4.559-8.352
	c-0.172-2.75-0.541-3.723-1.621-5.162c-1.08-1.436-3.934-2.375-5.641-2.375c-1.746,0-3.185,0.791-4.318,2.371
	c-1.135,1.586-1.7,3.629-1.7,6.143c0,4.141,1.61,7.992,4.841,11.553c3.205,3.537,6.162,5.336,11.389,5.336
	c3.59,0,7.768-1.834,12.59-7.258c0.436-0.49,0.928-1.186,1.412-2.01c0-0.001,0-0.001,0.001-0.002
	c3.667-5.166,8.048-14.432,8.382-27.432C57.146,81.852,52.324,64.85,43.779,52.292z M33.478,71.386
	c-7.659-20.137-6.092-26.045-4.768-27.756c3.415,5.973,7.584,11.741,13.069,26.163c7.881,20.716,6.602,27.228,5.55,29.155
	C43.773,92.418,39.39,86.926,33.478,71.386z"/>
</svg>
